<svg xmlns="http://www.w3.org/2000/svg" xmlns:xlink="http://www.w3.org/1999/xlink" width="135" height="80" viewBox="118 105 133 78" version="1.0"><defs><g/><clipPath id="bbc86a9354"><path d="M 26 24 L 35 24 L 35 42 L 26 42 Z M 26 24 " clip-rule="nonzero"/></clipPath><clipPath id="c9e107a367"><path d="M 30.183594 24.082031 L 34.019531 24.824219 L 30.820312 41.34375 L 26.984375 40.601562 Z M 30.183594 24.082031 " clip-rule="nonzero"/></clipPath><clipPath id="dedefe1780"><path d="M 0.960938 0 L 8.160156 0 L 8.160156 17.441406 L 0.960938 17.441406 Z M 0.960938 0 " clip-rule="nonzero"/></clipPath><clipPath id="bd6280eb2d"><path d="M 4.183594 0.0820312 L 8.019531 0.824219 L 4.820312 17.34375 L 0.984375 16.601562 Z M 4.183594 0.0820312 " clip-rule="nonzero"/></clipPath><clipPath id="fb081cd5dd"><rect x="0" width="9" y="0" height="18"/></clipPath><clipPath id="c1c079ed51"><path d="M 22 30 L 33 30 L 33 46 L 22 46 Z M 22 30 " clip-rule="nonzero"/></clipPath><clipPath id="6fcf4a48e6"><path d="M 25.546875 30.878906 L 32.464844 32.273438 L 29.695312 45.992188 L 22.777344 44.59375 Z M 25.546875 30.878906 " clip-rule="nonzero"/></clipPath><clipPath id="8fc72d16d6"><path d="M 0.640625 0.640625 L 10.480469 0.640625 L 10.480469 16 L 0.640625 16 Z M 0.640625 0.640625 " clip-rule="nonzero"/></clipPath><clipPath id="897a7dc8ed"><path d="M 3.546875 0.878906 L 10.464844 2.273438 L 7.695312 15.992188 L 0.777344 14.59375 Z M 3.546875 0.878906 " clip-rule="nonzero"/></clipPath><clipPath id="e72a223c74"><rect x="0" width="11" y="0" height="16"/></clipPath><clipPath id="c9dbac3022"><path d="M 24 38 L 32 38 L 32 45 L 24 45 Z M 24 38 " clip-rule="nonzero"/></clipPath><clipPath id="2b8bb77bab"><path d="M 25.171875 38.433594 L 31.144531 39.640625 L 30.070312 44.949219 L 24.097656 43.742188 Z M 25.171875 38.433594 " clip-rule="nonzero"/></clipPath><clipPath id="535c4909a3"><path d="M 0.078125 0.320312 L 7.28125 0.320312 L 7.28125 7 L 0.078125 7 Z M 0.078125 0.320312 " clip-rule="nonzero"/></clipPath><clipPath id="2029ca0f4b"><path d="M 1.171875 0.433594 L 7.144531 1.640625 L 6.070312 6.949219 L 0.0976562 5.742188 Z M 1.171875 0.433594 " clip-rule="nonzero"/></clipPath><clipPath id="cb953c6e18"><rect x="0" width="8" y="0" height="7"/></clipPath><clipPath id="a38bbe6fa5"><rect x="0" width="127" y="0" height="91"/></clipPath></defs><g transform="matrix(1, 0, 0, 1, 124, 98)"><g clip-path="url(#a38bbe6fa5)"><g fill="#ffffff" fill-opacity="1"><g transform="translate(4.882767, 35.144682)"><g><path d="M 9.28125 -7.890625 C 9.15625 -7.378906 9.054688 -6.9375 8.984375 -6.5625 C 8.921875 -6.195312 8.890625 -5.847656 8.890625 -5.515625 C 8.890625 -4.710938 9.171875 -4.066406 9.734375 -3.578125 C 10.304688 -3.085938 11.148438 -2.84375 12.265625 -2.84375 C 13.078125 -2.84375 13.742188 -2.984375 14.265625 -3.265625 C 14.785156 -3.546875 15.210938 -3.914062 15.546875 -4.375 C 15.878906 -4.84375 16.144531 -5.375 16.34375 -5.96875 C 16.539062 -6.570312 16.707031 -7.210938 16.84375 -7.890625 L 19.796875 -22.0625 L 22.953125 -22.0625 L 19.9375 -7.8125 C 19.707031 -6.695312 19.367188 -5.65625 18.921875 -4.6875 C 18.484375 -3.71875 17.851562 -2.859375 17.03125 -2.109375 C 16.207031 -1.367188 15.144531 -0.785156 13.84375 -0.359375 C 12.550781 0.0664062 10.945312 0.28125 9.03125 0.28125 C 6.363281 0.28125 4.394531 -0.148438 3.125 -1.015625 C 1.851562 -1.890625 1.21875 -3.226562 1.21875 -5.03125 C 1.21875 -5.84375 1.320312 -6.875 1.53125 -8.125 C 1.738281 -9.375 2.003906 -10.726562 2.328125 -12.1875 L 4.453125 -22.0625 L 12.328125 -22.0625 Z M 9.28125 -7.890625 "/></g></g></g><g fill="#ffffff" fill-opacity="1"><g transform="translate(25.066545, 35.144682)"><g><path d="M 6.734375 0 L -0.34375 0 L 4.578125 -23.34375 L 11.703125 -23.34375 Z M 6.734375 0 "/></g></g></g><g fill="#ffffff" fill-opacity="1"><g transform="translate(33.543006, 35.144682)"><g><path d="M 1.59375 -14.9375 C 2.457031 -15.125 3.210938 -15.332031 3.859375 -15.5625 C 4.503906 -15.789062 5.097656 -16.078125 5.640625 -16.421875 C 6.179688 -16.773438 6.703125 -17.207031 7.203125 -17.71875 C 7.703125 -18.226562 8.242188 -18.851562 8.828125 -19.59375 L 12.40625 -19.59375 L 11.390625 -14.9375 L 14.109375 -14.9375 L 13.65625 -12.609375 L 10.90625 -12.609375 L 9.484375 -5.828125 C 9.367188 -5.296875 9.273438 -4.820312 9.203125 -4.40625 C 9.128906 -3.988281 9.09375 -3.664062 9.09375 -3.4375 C 9.09375 -2.976562 9.257812 -2.6875 9.59375 -2.5625 C 9.9375 -2.445312 10.570312 -2.390625 11.5 -2.390625 L 10.96875 0 C 10.8125 0.0390625 10.5625 0.0703125 10.21875 0.09375 C 9.882812 0.125 9.515625 0.15625 9.109375 0.1875 C 8.710938 0.226562 8.296875 0.253906 7.859375 0.265625 C 7.429688 0.273438 7.054688 0.28125 6.734375 0.28125 C 6.160156 0.28125 5.59375 0.238281 5.03125 0.15625 C 4.476562 0.0703125 3.984375 -0.0859375 3.546875 -0.328125 C 3.109375 -0.566406 2.753906 -0.914062 2.484375 -1.375 C 2.210938 -1.84375 2.078125 -2.472656 2.078125 -3.265625 C 2.078125 -3.546875 2.09375 -3.894531 2.125 -4.3125 C 2.164062 -4.726562 2.242188 -5.191406 2.359375 -5.703125 L 3.828125 -12.609375 L 1.109375 -12.609375 Z M 1.59375 -14.9375 "/></g></g></g><g fill="#ffffff" fill-opacity="1"><g transform="translate(45.458717, 35.144682)"><g><path d="M 2.8125 -14.9375 L 8.46875 -14.9375 L 9 -12.328125 L 9.234375 -12.328125 C 9.765625 -13.160156 10.445312 -13.863281 11.28125 -14.4375 C 12.125 -15.019531 13.226562 -15.3125 14.59375 -15.3125 C 14.6875 -15.3125 14.828125 -15.304688 15.015625 -15.296875 C 15.210938 -15.285156 15.429688 -15.25 15.671875 -15.1875 C 15.921875 -15.132812 16.175781 -15.054688 16.4375 -14.953125 C 16.707031 -14.847656 16.972656 -14.703125 17.234375 -14.515625 L 15.703125 -7.359375 L 11.90625 -7.359375 C 11.863281 -8.796875 11.738281 -9.796875 11.53125 -10.359375 C 11.320312 -10.929688 10.988281 -11.21875 10.53125 -11.21875 C 10.289062 -11.21875 10.035156 -11.164062 9.765625 -11.0625 C 9.503906 -10.957031 9.238281 -10.734375 8.96875 -10.390625 L 6.734375 0 L -0.34375 0 Z M 2.8125 -14.9375 "/></g></g></g><g fill="#ffffff" fill-opacity="1"><g transform="translate(60.535744, 35.144682)"><g><path d="M 2.5 -13.65625 C 3.675781 -14.226562 4.882812 -14.644531 6.125 -14.90625 C 7.363281 -15.175781 8.75 -15.3125 10.28125 -15.3125 C 11.757812 -15.3125 12.984375 -15.195312 13.953125 -14.96875 C 14.929688 -14.738281 15.707031 -14.398438 16.28125 -13.953125 C 16.863281 -13.515625 17.269531 -12.992188 17.5 -12.390625 C 17.738281 -11.796875 17.859375 -11.113281 17.859375 -10.34375 C 17.859375 -9.90625 17.828125 -9.429688 17.765625 -8.921875 C 17.710938 -8.410156 17.648438 -7.984375 17.578125 -7.640625 L 15.9375 0 L 10.34375 0 L 9.71875 -2.21875 L 9.515625 -2.21875 C 8.773438 -1.40625 7.910156 -0.785156 6.921875 -0.359375 C 5.941406 0.0664062 4.96875 0.28125 4 0.28125 C 3.4375 0.28125 2.890625 0.195312 2.359375 0.03125 C 1.828125 -0.125 1.351562 -0.367188 0.9375 -0.703125 C 0.519531 -1.046875 0.1875 -1.476562 -0.0625 -2 C -0.320312 -2.519531 -0.453125 -3.148438 -0.453125 -3.890625 C -0.453125 -5.097656 -0.125 -6.050781 0.53125 -6.75 C 1.195312 -7.457031 2.066406 -7.988281 3.140625 -8.34375 C 4.222656 -8.707031 5.441406 -8.9375 6.796875 -9.03125 C 8.148438 -9.125 9.507812 -9.171875 10.875 -9.171875 C 10.914062 -9.398438 10.972656 -9.726562 11.046875 -10.15625 C 11.117188 -10.582031 11.15625 -10.957031 11.15625 -11.28125 C 11.15625 -11.695312 11.039062 -12.082031 10.8125 -12.4375 C 10.59375 -12.800781 10.140625 -12.984375 9.453125 -12.984375 C 8.640625 -12.984375 8.039062 -12.742188 7.65625 -12.265625 C 7.269531 -11.796875 7.019531 -11.226562 6.90625 -10.5625 L 1.84375 -10.5625 Z M 10.484375 -7.53125 L 9.859375 -7.53125 C 9.191406 -7.53125 8.617188 -7.441406 8.140625 -7.265625 C 7.671875 -7.097656 7.289062 -6.875 7 -6.59375 C 6.707031 -6.320312 6.488281 -6.007812 6.34375 -5.65625 C 6.207031 -5.3125 6.140625 -4.96875 6.140625 -4.625 C 6.140625 -4.0625 6.285156 -3.640625 6.578125 -3.359375 C 6.867188 -3.085938 7.210938 -2.953125 7.609375 -2.953125 C 8.097656 -2.953125 8.578125 -3.125 9.046875 -3.46875 C 9.523438 -3.820312 9.820312 -4.285156 9.9375 -4.859375 Z M 10.484375 -7.53125 "/></g></g></g><g fill="#ffffff" fill-opacity="1"><g transform="translate(1.755265, 57.940014)"><g><path d="M 13.6875 -15.671875 C 13.757812 -16.015625 13.796875 -16.488281 13.796875 -17.09375 C 13.796875 -17.4375 13.769531 -17.773438 13.71875 -18.109375 C 13.675781 -18.453125 13.59375 -18.753906 13.46875 -19.015625 C 13.351562 -19.285156 13.179688 -19.492188 12.953125 -19.640625 C 12.722656 -19.796875 12.421875 -19.875 12.046875 -19.875 C 11.628906 -19.875 11.25 -19.78125 10.90625 -19.59375 C 10.5625 -19.40625 10.253906 -19.164062 9.984375 -18.875 C 9.722656 -18.582031 9.515625 -18.242188 9.359375 -17.859375 C 9.210938 -17.484375 9.140625 -17.085938 9.140625 -16.671875 C 9.140625 -16.066406 9.296875 -15.601562 9.609375 -15.28125 C 9.921875 -14.957031 10.328125 -14.691406 10.828125 -14.484375 C 11.335938 -14.273438 11.914062 -14.097656 12.5625 -13.953125 C 13.21875 -13.816406 13.894531 -13.660156 14.59375 -13.484375 C 15.164062 -13.316406 15.738281 -13.101562 16.3125 -12.84375 C 16.894531 -12.59375 17.410156 -12.253906 17.859375 -11.828125 C 18.316406 -11.398438 18.679688 -10.84375 18.953125 -10.15625 C 19.234375 -9.476562 19.375 -8.628906 19.375 -7.609375 C 19.375 -6.148438 19.082031 -4.921875 18.5 -3.921875 C 17.925781 -2.929688 17.128906 -2.125 16.109375 -1.5 C 15.097656 -0.875 13.890625 -0.421875 12.484375 -0.140625 C 11.085938 0.140625 9.566406 0.28125 7.921875 0.28125 C 6.253906 0.28125 4.890625 0.171875 3.828125 -0.046875 C 2.773438 -0.265625 1.953125 -0.503906 1.359375 -0.765625 C 0.640625 -1.066406 0.101562 -1.414062 -0.25 -1.8125 L 0.9375 -6.5625 L 7.046875 -6.5625 C 7.023438 -6.351562 7.003906 -6.066406 6.984375 -5.703125 C 6.960938 -5.347656 6.953125 -5.066406 6.953125 -4.859375 C 6.953125 -4.585938 6.984375 -4.300781 7.046875 -4 C 7.117188 -3.695312 7.226562 -3.414062 7.375 -3.15625 C 7.53125 -2.90625 7.742188 -2.695312 8.015625 -2.53125 C 8.296875 -2.375 8.644531 -2.296875 9.0625 -2.296875 C 9.53125 -2.296875 9.941406 -2.398438 10.296875 -2.609375 C 10.660156 -2.816406 10.960938 -3.078125 11.203125 -3.390625 C 11.441406 -3.703125 11.625 -4.046875 11.75 -4.421875 C 11.882812 -4.804688 11.953125 -5.1875 11.953125 -5.5625 C 11.953125 -6.070312 11.828125 -6.5 11.578125 -6.84375 C 11.335938 -7.1875 11.007812 -7.476562 10.59375 -7.71875 C 10.175781 -7.96875 9.695312 -8.175781 9.15625 -8.34375 C 8.613281 -8.519531 8.050781 -8.703125 7.46875 -8.890625 C 6.914062 -9.054688 6.332031 -9.253906 5.71875 -9.484375 C 5.101562 -9.710938 4.539062 -10.035156 4.03125 -10.453125 C 3.519531 -10.867188 3.09375 -11.394531 2.75 -12.03125 C 2.414062 -12.664062 2.25 -13.484375 2.25 -14.484375 C 2.25 -15.960938 2.625 -17.207031 3.375 -18.21875 C 4.132812 -19.226562 5.085938 -20.046875 6.234375 -20.671875 C 7.378906 -21.296875 8.632812 -21.738281 10 -22 C 11.363281 -22.269531 12.660156 -22.40625 13.890625 -22.40625 C 15.515625 -22.40625 16.910156 -22.210938 18.078125 -21.828125 C 19.242188 -21.441406 20.128906 -21 20.734375 -20.5 L 19.453125 -15.671875 Z M 13.6875 -15.671875 "/></g></g></g><g fill="#ffffff" fill-opacity="1"><g transform="translate(20.445237, 57.940014)"><g><path d="M 5.484375 5.828125 L -1.59375 5.828125 L 2.78125 -14.9375 L 8.4375 -14.9375 L 9.0625 -12.71875 L 9.28125 -12.71875 C 10.113281 -13.59375 11.039062 -14.21875 12.0625 -14.59375 C 13.09375 -14.976562 14.109375 -15.171875 15.109375 -15.171875 C 15.921875 -15.171875 16.597656 -15.050781 17.140625 -14.8125 C 17.679688 -14.570312 18.113281 -14.242188 18.4375 -13.828125 C 18.769531 -13.410156 19.003906 -12.910156 19.140625 -12.328125 C 19.273438 -11.753906 19.34375 -11.140625 19.34375 -10.484375 C 19.34375 -10.160156 19.316406 -9.675781 19.265625 -9.03125 C 19.222656 -8.382812 19.117188 -7.660156 18.953125 -6.859375 C 18.796875 -6.054688 18.566406 -5.234375 18.265625 -4.390625 C 17.960938 -3.546875 17.5625 -2.773438 17.0625 -2.078125 C 16.570312 -1.390625 15.945312 -0.820312 15.1875 -0.375 C 14.4375 0.0625 13.539062 0.28125 12.5 0.28125 C 11.925781 0.28125 11.363281 0.207031 10.8125 0.0625 C 10.269531 -0.0703125 9.78125 -0.253906 9.34375 -0.484375 C 8.90625 -0.710938 8.515625 -0.984375 8.171875 -1.296875 C 7.835938 -1.609375 7.59375 -1.925781 7.4375 -2.25 L 7.21875 -2.25 Z M 9.171875 -3.09375 C 9.722656 -3.09375 10.179688 -3.382812 10.546875 -3.96875 C 10.921875 -4.5625 11.222656 -5.257812 11.453125 -6.0625 C 11.691406 -6.863281 11.863281 -7.660156 11.96875 -8.453125 C 12.070312 -9.253906 12.125 -9.851562 12.125 -10.25 C 12.125 -10.707031 12.046875 -11.085938 11.890625 -11.390625 C 11.742188 -11.691406 11.472656 -11.84375 11.078125 -11.84375 C 10.640625 -11.84375 10.222656 -11.6875 9.828125 -11.375 C 9.429688 -11.0625 9.144531 -10.789062 8.96875 -10.5625 L 7.609375 -4.203125 C 7.796875 -3.953125 8.015625 -3.703125 8.265625 -3.453125 C 8.523438 -3.210938 8.828125 -3.09375 9.171875 -3.09375 Z M 9.171875 -3.09375 "/></g></g></g><g fill="#ffffff" fill-opacity="1"><g transform="translate(39.030991, 57.940014)"><g><path d="M 10.9375 -15.3125 C 13.695312 -15.3125 15.703125 -14.828125 16.953125 -13.859375 C 18.273438 -12.835938 18.9375 -11.144531 18.9375 -8.78125 C 18.9375 -7.320312 18.691406 -6.007812 18.203125 -4.84375 C 17.710938 -3.675781 17.03125 -2.707031 16.15625 -1.9375 C 14.394531 -0.457031 11.847656 0.28125 8.515625 0.28125 C 5.660156 0.28125 3.617188 -0.265625 2.390625 -1.359375 C 1.078125 -2.492188 0.421875 -4.191406 0.421875 -6.453125 C 0.421875 -7.960938 0.722656 -9.332031 1.328125 -10.5625 C 1.941406 -11.789062 2.832031 -12.804688 4 -13.609375 C 5.6875 -14.742188 8 -15.3125 10.9375 -15.3125 Z M 8.578125 -2.078125 C 9.160156 -2.078125 9.664062 -2.398438 10.09375 -3.046875 C 10.519531 -3.703125 10.859375 -4.5 11.109375 -5.4375 C 11.367188 -6.375 11.5625 -7.34375 11.6875 -8.34375 C 11.8125 -9.351562 11.875 -10.226562 11.875 -10.96875 C 11.875 -11.625 11.8125 -12.117188 11.6875 -12.453125 C 11.5625 -12.785156 11.289062 -12.953125 10.875 -12.953125 C 10.25 -12.953125 9.707031 -12.613281 9.25 -11.9375 C 8.800781 -11.269531 8.4375 -10.472656 8.15625 -9.546875 C 7.882812 -8.617188 7.679688 -7.671875 7.546875 -6.703125 C 7.421875 -5.734375 7.359375 -4.945312 7.359375 -4.34375 C 7.359375 -2.832031 7.765625 -2.078125 8.578125 -2.078125 Z M 8.578125 -2.078125 "/></g></g></g><g fill="#ffffff" fill-opacity="1"><g transform="translate(57.304078, 57.940014)"><g><path d="M 2.8125 -14.9375 L 8.46875 -14.9375 L 9 -12.328125 L 9.234375 -12.328125 C 9.765625 -13.160156 10.445312 -13.863281 11.28125 -14.4375 C 12.125 -15.019531 13.226562 -15.3125 14.59375 -15.3125 C 14.6875 -15.3125 14.828125 -15.304688 15.015625 -15.296875 C 15.210938 -15.285156 15.429688 -15.25 15.671875 -15.1875 C 15.921875 -15.132812 16.175781 -15.054688 16.4375 -14.953125 C 16.707031 -14.847656 16.972656 -14.703125 17.234375 -14.515625 L 15.703125 -7.359375 L 11.90625 -7.359375 C 11.863281 -8.796875 11.738281 -9.796875 11.53125 -10.359375 C 11.320312 -10.929688 10.988281 -11.21875 10.53125 -11.21875 C 10.289062 -11.21875 10.035156 -11.164062 9.765625 -11.0625 C 9.503906 -10.957031 9.238281 -10.734375 8.96875 -10.390625 L 6.734375 0 L -0.34375 0 Z M 2.8125 -14.9375 "/></g></g></g><g fill="#ffffff" fill-opacity="1"><g transform="translate(72.381105, 57.940014)"><g><path d="M 1.59375 -14.9375 C 2.457031 -15.125 3.210938 -15.332031 3.859375 -15.5625 C 4.503906 -15.789062 5.097656 -16.078125 5.640625 -16.421875 C 6.179688 -16.773438 6.703125 -17.207031 7.203125 -17.71875 C 7.703125 -18.226562 8.242188 -18.851562 8.828125 -19.59375 L 12.40625 -19.59375 L 11.390625 -14.9375 L 14.109375 -14.9375 L 13.65625 -12.609375 L 10.90625 -12.609375 L 9.484375 -5.828125 C 9.367188 -5.296875 9.273438 -4.820312 9.203125 -4.40625 C 9.128906 -3.988281 9.09375 -3.664062 9.09375 -3.4375 C 9.09375 -2.976562 9.257812 -2.6875 9.59375 -2.5625 C 9.9375 -2.445312 10.570312 -2.390625 11.5 -2.390625 L 10.96875 0 C 10.8125 0.0390625 10.5625 0.0703125 10.21875 0.09375 C 9.882812 0.125 9.515625 0.15625 9.109375 0.1875 C 8.710938 0.226562 8.296875 0.253906 7.859375 0.265625 C 7.429688 0.273438 7.054688 0.28125 6.734375 0.28125 C 6.160156 0.28125 5.59375 0.238281 5.03125 0.15625 C 4.476562 0.0703125 3.984375 -0.0859375 3.546875 -0.328125 C 3.109375 -0.566406 2.753906 -0.914062 2.484375 -1.375 C 2.210938 -1.84375 2.078125 -2.472656 2.078125 -3.265625 C 2.078125 -3.546875 2.09375 -3.894531 2.125 -4.3125 C 2.164062 -4.726562 2.242188 -5.191406 2.359375 -5.703125 L 3.828125 -12.609375 L 1.109375 -12.609375 Z M 1.59375 -14.9375 "/></g></g></g><g fill="#ffffff" fill-opacity="1"><g transform="translate(84.296816, 57.940014)"><g><path d="M 10.65625 -10.5625 C 10.6875 -10.675781 10.710938 -10.789062 10.734375 -10.90625 C 10.753906 -11.019531 10.765625 -11.144531 10.765625 -11.28125 C 10.765625 -11.695312 10.6875 -12.082031 10.53125 -12.4375 C 10.382812 -12.800781 10.09375 -12.984375 9.65625 -12.984375 C 9.257812 -12.984375 8.863281 -12.816406 8.46875 -12.484375 C 8.082031 -12.148438 7.890625 -11.707031 7.890625 -11.15625 C 7.890625 -10.78125 7.984375 -10.484375 8.171875 -10.265625 C 8.367188 -10.046875 8.628906 -9.863281 8.953125 -9.71875 C 9.285156 -9.582031 9.648438 -9.46875 10.046875 -9.375 C 10.453125 -9.28125 10.851562 -9.1875 11.25 -9.09375 C 11.8125 -8.957031 12.335938 -8.789062 12.828125 -8.59375 C 13.328125 -8.394531 13.773438 -8.132812 14.171875 -7.8125 C 14.566406 -7.488281 14.878906 -7.085938 15.109375 -6.609375 C 15.335938 -6.140625 15.453125 -5.554688 15.453125 -4.859375 C 15.453125 -3.890625 15.226562 -3.070312 14.78125 -2.40625 C 14.332031 -1.75 13.707031 -1.21875 12.90625 -0.8125 C 12.101562 -0.40625 11.160156 -0.125 10.078125 0.03125 C 9.003906 0.195312 7.859375 0.28125 6.640625 0.28125 C 4.765625 0.28125 3.210938 0.140625 1.984375 -0.140625 C 0.753906 -0.421875 -0.101562 -0.6875 -0.59375 -0.9375 L 0.140625 -4.40625 L 4.828125 -4.40625 C 4.804688 -4.289062 4.796875 -4.179688 4.796875 -4.078125 C 4.796875 -3.972656 4.796875 -3.863281 4.796875 -3.75 C 4.796875 -3.21875 4.914062 -2.796875 5.15625 -2.484375 C 5.394531 -2.171875 5.816406 -2.015625 6.421875 -2.015625 C 7.097656 -2.015625 7.578125 -2.203125 7.859375 -2.578125 C 8.148438 -2.960938 8.296875 -3.316406 8.296875 -3.640625 C 8.296875 -3.972656 8.175781 -4.257812 7.9375 -4.5 C 7.695312 -4.738281 7.390625 -4.945312 7.015625 -5.125 C 6.640625 -5.300781 6.226562 -5.453125 5.78125 -5.578125 C 5.332031 -5.703125 4.898438 -5.820312 4.484375 -5.9375 C 4.179688 -6.007812 3.835938 -6.125 3.453125 -6.28125 C 3.078125 -6.445312 2.710938 -6.679688 2.359375 -6.984375 C 2.015625 -7.285156 1.722656 -7.671875 1.484375 -8.140625 C 1.253906 -8.617188 1.140625 -9.21875 1.140625 -9.9375 C 1.140625 -10.957031 1.390625 -11.804688 1.890625 -12.484375 C 2.390625 -13.171875 3.035156 -13.722656 3.828125 -14.140625 C 4.628906 -14.554688 5.535156 -14.851562 6.546875 -15.03125 C 7.554688 -15.21875 8.570312 -15.3125 9.59375 -15.3125 C 10.863281 -15.3125 12.066406 -15.195312 13.203125 -14.96875 C 14.335938 -14.738281 15.265625 -14.4375 15.984375 -14.0625 L 15.171875 -10.5625 Z M 10.65625 -10.5625 "/></g></g></g><g clip-path="url(#bbc86a9354)"><g clip-path="url(#c9e107a367)"><g transform="matrix(1, 0, 0, 1, 26, 24)"><g clip-path="url(#fb081cd5dd)"><g clip-path="url(#dedefe1780)"><g clip-path="url(#bd6280eb2d)"><path fill="#ffffff" d="M 4.183594 0.0820312 L 8.019531 0.824219 L 4.820312 17.347656 L 0.984375 16.605469 Z M 4.183594 0.0820312 " fill-opacity="1" fill-rule="nonzero"/></g></g></g></g></g></g><g clip-path="url(#c1c079ed51)"><g clip-path="url(#6fcf4a48e6)"><g transform="matrix(1, 0, 0, 1, 22, 30)"><g clip-path="url(#e72a223c74)"><g clip-path="url(#8fc72d16d6)"><g clip-path="url(#897a7dc8ed)"><path fill="#ffffff" d="M 3.546875 0.878906 L 10.464844 2.273438 L 7.691406 16.003906 L 0.773438 14.605469 Z M 3.546875 0.878906 " fill-opacity="1" fill-rule="nonzero"/></g></g></g></g></g></g><g clip-path="url(#c9dbac3022)"><g clip-path="url(#2b8bb77bab)"><g transform="matrix(1, 0, 0, 1, 24, 38)"><g clip-path="url(#cb953c6e18)"><g clip-path="url(#535c4909a3)"><g clip-path="url(#2029ca0f4b)"><path fill="#ffffff" d="M 1.171875 0.433594 L 7.144531 1.640625 L 6.070312 6.949219 L 0.0976562 5.742188 Z M 1.171875 0.433594 " fill-opacity="1" fill-rule="nonzero"/></g></g></g></g></g></g><g fill="#ffffff" fill-opacity="1"><g transform="translate(58.527668, 80.662407)"><g><path d="M 4.6875 -22.0625 L 19.3125 -22.0625 L 18.75 -19.421875 L 11.640625 -19.421875 L 10.28125 -13.0625 L 16.21875 -13.0625 L 15.671875 -10.390625 L 9.71875 -10.390625 L 7.5 0 L 0 0 Z M 4.6875 -22.0625 "/></g></g></g><g fill="#ffffff" fill-opacity="1"><g transform="translate(73.048847, 80.662407)"><g><path d="M 2.5 -13.65625 C 3.675781 -14.226562 4.882812 -14.644531 6.125 -14.90625 C 7.363281 -15.175781 8.75 -15.3125 10.28125 -15.3125 C 11.757812 -15.3125 12.984375 -15.195312 13.953125 -14.96875 C 14.929688 -14.738281 15.707031 -14.398438 16.28125 -13.953125 C 16.863281 -13.515625 17.269531 -12.992188 17.5 -12.390625 C 17.738281 -11.796875 17.859375 -11.113281 17.859375 -10.34375 C 17.859375 -9.90625 17.828125 -9.429688 17.765625 -8.921875 C 17.710938 -8.410156 17.648438 -7.984375 17.578125 -7.640625 L 15.9375 0 L 10.34375 0 L 9.71875 -2.21875 L 9.515625 -2.21875 C 8.773438 -1.40625 7.910156 -0.785156 6.921875 -0.359375 C 5.941406 0.0664062 4.96875 0.28125 4 0.28125 C 3.4375 0.28125 2.890625 0.195312 2.359375 0.03125 C 1.828125 -0.125 1.351562 -0.367188 0.9375 -0.703125 C 0.519531 -1.046875 0.1875 -1.476562 -0.0625 -2 C -0.320312 -2.519531 -0.453125 -3.148438 -0.453125 -3.890625 C -0.453125 -5.097656 -0.125 -6.050781 0.53125 -6.75 C 1.195312 -7.457031 2.066406 -7.988281 3.140625 -8.34375 C 4.222656 -8.707031 5.441406 -8.9375 6.796875 -9.03125 C 8.148438 -9.125 9.507812 -9.171875 10.875 -9.171875 C 10.914062 -9.398438 10.972656 -9.726562 11.046875 -10.15625 C 11.117188 -10.582031 11.15625 -10.957031 11.15625 -11.28125 C 11.15625 -11.695312 11.039062 -12.082031 10.8125 -12.4375 C 10.59375 -12.800781 10.140625 -12.984375 9.453125 -12.984375 C 8.640625 -12.984375 8.039062 -12.742188 7.65625 -12.265625 C 7.269531 -11.796875 7.019531 -11.226562 6.90625 -10.5625 L 1.84375 -10.5625 Z M 10.484375 -7.53125 L 9.859375 -7.53125 C 9.191406 -7.53125 8.617188 -7.441406 8.140625 -7.265625 C 7.671875 -7.097656 7.289062 -6.875 7 -6.59375 C 6.707031 -6.320312 6.488281 -6.007812 6.34375 -5.65625 C 6.207031 -5.3125 6.140625 -4.96875 6.140625 -4.625 C 6.140625 -4.0625 6.285156 -3.640625 6.578125 -3.359375 C 6.867188 -3.085938 7.210938 -2.953125 7.609375 -2.953125 C 8.097656 -2.953125 8.578125 -3.125 9.046875 -3.46875 C 9.523438 -3.820312 9.820312 -4.285156 9.9375 -4.859375 Z M 10.484375 -7.53125 "/></g></g></g><g fill="#ffffff" fill-opacity="1"><g transform="translate(90.522927, 80.662407)"><g><path d="M 9.3125 -12.71875 C 9.789062 -13.175781 10.332031 -13.601562 10.9375 -14 C 11.46875 -14.320312 12.09375 -14.617188 12.8125 -14.890625 C 13.53125 -15.171875 14.332031 -15.3125 15.21875 -15.3125 C 16.414062 -15.3125 17.40625 -15.003906 18.1875 -14.390625 C 18.976562 -13.785156 19.375 -12.945312 19.375 -11.875 C 19.375 -11.570312 19.335938 -11.207031 19.265625 -10.78125 C 19.203125 -10.351562 19.125 -9.90625 19.03125 -9.4375 C 18.9375 -8.976562 18.835938 -8.507812 18.734375 -8.03125 C 18.628906 -7.5625 18.546875 -7.140625 18.484375 -6.765625 L 17.015625 0 L 9.96875 0 L 11.875 -9.0625 C 11.925781 -9.363281 11.984375 -9.671875 12.046875 -9.984375 C 12.117188 -10.296875 12.15625 -10.582031 12.15625 -10.84375 C 12.15625 -11.1875 12.066406 -11.46875 11.890625 -11.6875 C 11.722656 -11.90625 11.460938 -12.015625 11.109375 -12.015625 C 10.691406 -12.015625 10.289062 -11.863281 9.90625 -11.5625 C 9.53125 -11.257812 9.238281 -11.003906 9.03125 -10.796875 L 6.734375 0 L -0.34375 0 L 2.8125 -14.9375 L 8.46875 -14.9375 L 9.09375 -12.71875 Z M 9.3125 -12.71875 "/></g></g></g><g fill="#ffffff" fill-opacity="1"><g transform="translate(109.178156, 80.662407)"><g><path d="M 10.65625 -10.5625 C 10.6875 -10.675781 10.710938 -10.789062 10.734375 -10.90625 C 10.753906 -11.019531 10.765625 -11.144531 10.765625 -11.28125 C 10.765625 -11.695312 10.6875 -12.082031 10.53125 -12.4375 C 10.382812 -12.800781 10.09375 -12.984375 9.65625 -12.984375 C 9.257812 -12.984375 8.863281 -12.816406 8.46875 -12.484375 C 8.082031 -12.148438 7.890625 -11.707031 7.890625 -11.15625 C 7.890625 -10.78125 7.984375 -10.484375 8.171875 -10.265625 C 8.367188 -10.046875 8.628906 -9.863281 8.953125 -9.71875 C 9.285156 -9.582031 9.648438 -9.46875 10.046875 -9.375 C 10.453125 -9.28125 10.851562 -9.1875 11.25 -9.09375 C 11.8125 -8.957031 12.335938 -8.789062 12.828125 -8.59375 C 13.328125 -8.394531 13.773438 -8.132812 14.171875 -7.8125 C 14.566406 -7.488281 14.878906 -7.085938 15.109375 -6.609375 C 15.335938 -6.140625 15.453125 -5.554688 15.453125 -4.859375 C 15.453125 -3.890625 15.226562 -3.070312 14.78125 -2.40625 C 14.332031 -1.75 13.707031 -1.21875 12.90625 -0.8125 C 12.101562 -0.40625 11.160156 -0.125 10.078125 0.03125 C 9.003906 0.195312 7.859375 0.28125 6.640625 0.28125 C 4.765625 0.28125 3.210938 0.140625 1.984375 -0.140625 C 0.753906 -0.421875 -0.101562 -0.6875 -0.59375 -0.9375 L 0.140625 -4.40625 L 4.828125 -4.40625 C 4.804688 -4.289062 4.796875 -4.179688 4.796875 -4.078125 C 4.796875 -3.972656 4.796875 -3.863281 4.796875 -3.75 C 4.796875 -3.21875 4.914062 -2.796875 5.15625 -2.484375 C 5.394531 -2.171875 5.816406 -2.015625 6.421875 -2.015625 C 7.097656 -2.015625 7.578125 -2.203125 7.859375 -2.578125 C 8.148438 -2.960938 8.296875 -3.316406 8.296875 -3.640625 C 8.296875 -3.972656 8.175781 -4.257812 7.9375 -4.5 C 7.695312 -4.738281 7.390625 -4.945312 7.015625 -5.125 C 6.640625 -5.300781 6.226562 -5.453125 5.78125 -5.578125 C 5.332031 -5.703125 4.898438 -5.820312 4.484375 -5.9375 C 4.179688 -6.007812 3.835938 -6.125 3.453125 -6.28125 C 3.078125 -6.445312 2.710938 -6.679688 2.359375 -6.984375 C 2.015625 -7.285156 1.722656 -7.671875 1.484375 -8.140625 C 1.253906 -8.617188 1.140625 -9.21875 1.140625 -9.9375 C 1.140625 -10.957031 1.390625 -11.804688 1.890625 -12.484375 C 2.390625 -13.171875 3.035156 -13.722656 3.828125 -14.140625 C 4.628906 -14.554688 5.535156 -14.851562 6.546875 -15.03125 C 7.554688 -15.21875 8.570312 -15.3125 9.59375 -15.3125 C 10.863281 -15.3125 12.066406 -15.195312 13.203125 -14.96875 C 14.335938 -14.738281 15.265625 -14.4375 15.984375 -14.0625 L 15.171875 -10.5625 Z M 10.65625 -10.5625 "/></g></g></g></g></g></svg>